<?xml version="1.0" standalone="no"?>
<!DOCTYPE svg PUBLIC "-//W3C//DTD SVG 20010904//EN"
 "http://www.w3.org/TR/2001/REC-SVG-20010904/DTD/svg10.dtd">
<svg version="1.0" xmlns="http://www.w3.org/2000/svg"
 width="7016.000000pt" height="4961.000000pt" viewBox="0 0 7016.000000 4961.000000"
 preserveAspectRatio="xMidYMid meet">

<g transform="translate(0.000000,4961.000000) scale(0.100000,-0.100000)"
fill="#000000" stroke="none">
<path d="M13422 26250 c-28 -12 -39 -38 -24 -59 7 -9 21 -34 33 -55 11 -21 40
-60 64 -85 23 -25 53 -64 67 -86 14 -22 39 -53 55 -70 16 -16 40 -48 53 -70
13 -22 40 -58 60 -80 21 -22 50 -60 65 -85 15 -25 42 -61 60 -80 17 -19 41
-51 53 -70 11 -19 35 -48 52 -65 18 -16 41 -48 52 -69 11 -21 39 -60 62 -85
23 -25 52 -62 64 -82 12 -19 31 -44 43 -55 12 -10 41 -49 65 -86 24 -37 52
-72 63 -78 11 -5 35 -32 52 -58 18 -26 52 -68 76 -94 23 -26 43 -52 43 -57 0
-6 22 -35 50 -66 27 -30 58 -71 69 -92 10 -21 31 -49 46 -63 15 -14 42 -47 60
-75 18 -27 44 -61 57 -75 14 -14 38 -45 54 -70 16 -25 50 -69 76 -98 27 -30
48 -59 48 -65 0 -7 25 -41 55 -75 30 -35 55 -67 55 -72 0 -5 22 -32 48 -62 26
-29 60 -74 75 -100 15 -26 41 -56 58 -68 16 -12 42 -41 56 -64 14 -22 41 -56
60 -74 18 -18 42 -50 52 -70 11 -20 36 -53 56 -72 20 -19 46 -52 56 -73 11
-21 42 -62 69 -92 28 -31 50 -60 50 -65 0 -5 22 -34 50 -65 27 -30 58 -71 69
-92 10 -21 36 -54 56 -73 20 -19 48 -55 61 -80 30 -52 70 -87 122 -106 30 -10
251 -13 1102 -14 1019 0 1067 1 1100 19 46 24 95 98 120 180 11 37 35 89 54
116 20 27 45 81 56 119 12 39 39 98 60 131 21 33 48 89 60 125 13 36 37 90 55
120 17 30 41 84 53 119 12 36 40 94 62 130 21 36 51 102 65 145 14 44 38 95
54 115 37 47 46 66 60 126 7 28 30 78 52 112 22 34 47 85 54 113 7 28 34 87
58 130 25 44 55 108 67 144 11 35 39 94 61 131 23 37 51 97 64 135 13 37 35
85 49 106 14 22 37 72 50 111 14 40 39 93 56 118 17 25 45 85 61 133 16 48 44
109 63 137 18 28 43 79 56 115 12 36 36 88 53 115 34 57 107 247 107 280 0 33
-31 55 -96 65 -81 13 -1645 13 -1714 0 -63 -12 -84 -28 -117 -93 -13 -27 -39
-69 -57 -95 -18 -26 -41 -67 -50 -92 -10 -24 -33 -66 -52 -91 -19 -26 -45 -77
-58 -113 -13 -36 -40 -84 -59 -108 -20 -24 -45 -69 -57 -100 -12 -32 -36 -80
-55 -107 -19 -27 -47 -78 -63 -114 -17 -36 -44 -86 -61 -111 -18 -25 -45 -78
-61 -117 -16 -40 -41 -84 -55 -99 -14 -14 -40 -62 -59 -106 -18 -43 -48 -102
-67 -130 -19 -28 -42 -65 -51 -83 -12 -21 -25 -31 -40 -31 -27 0 -130 95 -154
143 -17 31 -45 66 -171 208 -35 39 -63 75 -63 80 0 5 -22 33 -50 64 -27 30
-58 71 -69 92 -10 21 -31 49 -46 63 -15 14 -47 55 -71 93 -24 37 -48 67 -53
67 -5 0 -24 24 -42 53 -18 28 -55 76 -81 105 -26 30 -48 58 -48 63 0 5 -26 38
-57 74 -32 35 -92 103 -133 151 -77 88 -120 123 -263 208 -73 43 -142 71 -296
122 -37 12 -192 14 -985 13 -542 0 -951 -4 -964 -9z"/>
<path d="M23465 26251 c-52 -13 -81 -32 -262 -170 -73 -56 -224 -168 -283
-210 -25 -17 -65 -47 -90 -66 -25 -19 -63 -47 -85 -61 -22 -15 -58 -43 -81
-63 -22 -20 -66 -54 -98 -76 -32 -22 -77 -55 -100 -72 -123 -97 -281 -213
-334 -246 -25 -16 -78 -55 -117 -87 -40 -32 -82 -63 -95 -70 -13 -7 -55 -38
-94 -70 -39 -31 -96 -73 -126 -93 -30 -19 -66 -47 -80 -62 -14 -15 -61 -52
-105 -81 -44 -30 -108 -76 -142 -102 -102 -78 -192 -145 -253 -187 -31 -22
-88 -65 -126 -96 -38 -31 -83 -63 -99 -71 -17 -9 -50 -34 -75 -55 -25 -21 -79
-63 -120 -93 -41 -29 -98 -72 -127 -94 -29 -23 -75 -57 -103 -76 -29 -19 -75
-53 -103 -75 -28 -22 -68 -51 -88 -65 -20 -14 -63 -45 -95 -70 -31 -25 -79
-61 -105 -80 -132 -97 -227 -169 -268 -203 -25 -20 -75 -57 -111 -82 -36 -24
-81 -57 -102 -72 -70 -54 -123 -93 -172 -125 -26 -18 -64 -46 -84 -63 -19 -16
-54 -43 -77 -60 -24 -16 -86 -62 -138 -102 -52 -39 -111 -82 -131 -95 -39 -25
-48 -40 -40 -62 15 -40 32 -41 955 -41 l886 0 69 48 c219 151 295 205 326 233
19 17 73 56 119 86 46 31 93 66 104 78 11 12 72 58 135 102 63 43 144 101 180
128 36 27 79 57 95 66 17 9 46 30 65 46 56 46 133 104 160 118 14 7 60 41 103
74 44 34 98 75 122 91 24 17 88 64 143 105 182 138 273 205 327 240 95 63 150
103 177 128 15 14 43 35 62 46 57 35 154 105 162 117 3 6 47 38 97 71 50 32
110 77 133 98 23 21 61 51 85 65 24 15 74 50 110 76 87 64 110 64 150 2 45
-71 74 -140 93 -216 9 -38 34 -103 55 -146 22 -42 44 -96 51 -120 10 -40 10
-46 -9 -65 -21 -20 -33 -21 -344 -26 -362 -6 -349 -3 -459 -87 -35 -26 -92
-68 -127 -93 -35 -25 -78 -57 -95 -71 -17 -14 -42 -32 -56 -39 -14 -7 -60 -41
-103 -74 -44 -34 -95 -72 -115 -85 -21 -13 -55 -40 -77 -60 -23 -20 -67 -54
-99 -76 -94 -65 -226 -184 -226 -205 0 -45 -6 -44 1030 -55 542 -6 992 -14
1001 -18 17 -8 29 -29 50 -87 6 -19 27 -60 44 -90 18 -30 40 -82 50 -115 22
-78 120 -261 150 -281 21 -14 162 -16 1253 -17 1197 -2 1230 -1 1251 17 31 28
26 68 -24 191 -25 61 -55 148 -66 195 -11 47 -38 126 -59 177 -22 50 -47 123
-56 162 -8 40 -34 113 -55 163 -22 50 -49 129 -59 175 -11 46 -34 111 -51 146
-18 34 -44 111 -59 172 -15 60 -46 148 -69 195 -22 47 -46 112 -52 145 -6 33
-31 109 -55 169 -25 60 -51 139 -59 175 -17 81 -35 131 -70 202 -16 30 -36 91
-46 135 -10 45 -35 117 -57 160 -21 44 -49 119 -61 168 -65 262 -277 495 -551
607 -52 22 -122 44 -155 49 -70 11 -1924 12 -1970 1z"/>
<path d="M28413 26241 c-60 -15 -79 -36 -102 -108 -11 -37 -38 -94 -60 -126
-22 -32 -49 -86 -60 -120 -12 -34 -37 -81 -55 -105 -19 -24 -44 -72 -56 -106
-11 -35 -36 -86 -55 -112 -20 -27 -47 -80 -62 -119 -14 -38 -41 -91 -59 -116
-18 -25 -44 -75 -57 -112 -13 -36 -42 -97 -65 -134 -22 -37 -47 -92 -57 -121
-9 -29 -33 -76 -53 -105 -20 -28 -48 -84 -63 -124 -15 -40 -41 -90 -58 -112
-18 -22 -41 -68 -53 -101 -11 -33 -36 -84 -56 -113 -19 -28 -48 -85 -64 -126
-16 -41 -42 -91 -59 -112 -16 -21 -41 -71 -55 -111 -13 -40 -40 -98 -59 -129
-18 -30 -43 -80 -54 -110 -11 -30 -36 -79 -56 -108 -19 -30 -40 -71 -47 -90
-16 -45 -16 -251 0 -308 7 -23 38 -76 70 -118 65 -87 166 -161 287 -209 39
-15 75 -31 80 -36 10 -8 199 -60 315 -87 56 -13 416 -16 2720 -24 1696 -5
2675 -5 2709 1 86 16 119 56 170 210 18 52 47 120 65 150 19 30 43 89 54 131
12 42 37 103 56 135 19 32 46 95 60 139 14 44 39 101 55 127 30 46 61 125 61
153 0 8 20 53 45 101 25 48 57 123 72 168 14 44 38 99 53 121 15 22 42 83 59
135 18 52 45 118 61 146 16 29 43 94 59 145 17 52 44 114 61 139 41 62 40 87
-7 107 -34 15 -152 16 -1193 17 -635 1 -1167 -2 -1182 -6 -37 -11 -86 -55
-102 -92 -7 -17 -19 -56 -26 -86 -7 -30 -32 -91 -55 -135 -24 -44 -52 -114
-63 -156 -11 -43 -37 -104 -61 -144 -23 -39 -40 -79 -39 -89 2 -10 15 -28 30
-39 25 -18 46 -21 195 -24 185 -5 223 -13 223 -48 0 -30 -26 -90 -61 -142 -17
-23 -43 -75 -59 -114 -25 -63 -48 -101 -94 -161 -7 -10 -25 -22 -40 -28 -38
-14 -1492 -14 -1646 1 -136 12 -221 44 -299 109 -53 45 -77 93 -66 132 4 13
25 53 46 89 21 36 50 93 63 126 13 34 38 81 55 106 17 25 40 69 51 98 12 30
39 84 61 120 21 36 50 94 64 128 13 35 37 79 51 99 15 19 40 66 56 105 15 38
44 94 63 125 19 32 45 85 59 119 13 34 38 82 56 108 18 26 43 74 56 107 26 67
73 145 105 174 21 18 76 19 2014 24 l1994 5 30 29 c17 17 31 34 31 38 0 5 18
39 40 75 21 36 47 88 56 117 9 28 33 80 54 116 21 36 46 90 55 120 10 30 38
87 63 127 40 65 44 76 34 98 -7 14 -24 31 -39 37 -22 10 -740 13 -3158 15
-1721 1 -3145 -2 -3162 -6z"/>
<path d="M38459 26230 c-60 -10 -132 -53 -228 -136 -32 -26 -159 -121 -283
-209 -123 -88 -257 -187 -292 -216 -21 -18 -79 -63 -130 -99 -50 -36 -109 -80
-131 -97 -57 -46 -244 -184 -280 -207 -16 -10 -63 -44 -103 -75 -41 -31 -91
-67 -112 -81 -21 -14 -69 -50 -106 -81 -38 -30 -94 -71 -124 -91 -30 -19 -64
-45 -75 -58 -11 -12 -47 -41 -80 -63 -33 -22 -93 -67 -133 -99 -40 -32 -77
-58 -81 -58 -5 0 -49 -32 -97 -71 -49 -39 -105 -79 -124 -89 -19 -10 -44 -27
-54 -39 -11 -12 -46 -40 -79 -63 -32 -24 -84 -62 -116 -86 -31 -23 -94 -70
-141 -104 -47 -34 -98 -74 -115 -89 -16 -15 -50 -40 -75 -56 -56 -35 -116 -78
-155 -113 -16 -15 -50 -39 -75 -54 -25 -15 -70 -47 -100 -72 -30 -24 -81 -62
-112 -84 -31 -22 -59 -44 -63 -49 -3 -5 -56 -46 -118 -89 -62 -44 -121 -90
-132 -102 -11 -12 -33 -29 -49 -37 -16 -8 -62 -40 -103 -72 -76 -57 -96 -72
-192 -138 -30 -21 -71 -52 -90 -69 -20 -17 -52 -42 -72 -55 -33 -22 -212 -155
-281 -209 -35 -27 -35 -45 -1 -67 25 -17 84 -18 901 -21 571 -2 886 1 911 8
21 5 70 34 110 62 73 53 108 78 169 120 19 13 52 37 75 55 23 18 80 58 126 90
46 32 104 77 130 99 25 23 91 72 146 109 55 37 111 77 125 90 14 12 66 50 115
85 50 34 117 82 150 106 33 24 83 59 110 78 28 18 73 50 101 72 75 58 105 80
259 194 77 57 181 134 230 170 50 37 108 79 130 93 37 23 61 41 187 134 23 18
65 47 91 65 27 18 65 47 85 64 20 17 73 55 117 84 44 30 98 70 121 90 22 21
80 64 130 98 49 34 100 70 114 81 30 25 63 27 84 5 34 -33 90 -150 116 -242
16 -54 40 -118 54 -142 31 -54 67 -165 60 -184 -12 -32 -54 -36 -342 -36 -341
0 -359 -3 -464 -82 -40 -30 -127 -94 -193 -141 -66 -48 -158 -115 -204 -149
-46 -35 -98 -72 -116 -83 -18 -11 -50 -36 -71 -55 -22 -19 -68 -55 -103 -80
-100 -70 -221 -180 -221 -200 0 -10 7 -24 17 -31 18 -15 -29 -14 1276 -27
l729 -7 24 -28 c13 -15 24 -35 24 -44 0 -9 20 -53 44 -97 24 -45 51 -107 60
-138 22 -77 122 -265 149 -281 17 -9 546 -12 2468 -12 2345 0 2448 1 2467 18
32 29 113 173 131 235 10 31 36 85 58 119 22 34 47 88 57 122 9 33 33 84 53
113 20 29 52 93 70 142 18 49 45 105 59 123 14 19 39 71 56 116 16 45 42 102
58 127 16 25 42 80 59 123 16 43 43 99 59 125 16 26 37 72 47 102 9 30 35 82
56 116 21 33 50 94 64 135 14 41 41 99 60 129 18 31 43 80 55 110 12 30 37 81
55 115 19 33 46 91 60 128 14 37 36 85 50 107 14 21 39 77 57 122 30 74 37 85
73 102 46 23 10 22 1187 19 663 -3 748 -5 762 -19 23 -22 20 -34 -23 -101 -21
-32 -48 -86 -60 -119 -13 -32 -40 -85 -62 -117 -21 -33 -44 -78 -50 -100 -24
-91 -40 -117 -88 -145 -45 -27 -50 -27 -281 -35 -129 -4 -456 -11 -725 -15
-538 -8 -523 -6 -555 -68 -8 -16 -29 -51 -47 -78 -18 -26 -33 -54 -33 -62 0
-26 -32 -107 -62 -156 -17 -27 -41 -83 -54 -124 -26 -80 -46 -123 -75 -164
-26 -35 -58 -128 -51 -152 10 -38 60 -48 239 -48 121 0 175 -4 194 -14 33 -17
117 -106 151 -162 15 -24 39 -51 53 -60 13 -9 37 -37 53 -63 16 -25 46 -64 67
-86 20 -22 44 -53 52 -70 9 -16 36 -53 62 -81 95 -105 148 -170 173 -209 14
-22 36 -49 48 -60 12 -11 39 -45 60 -75 21 -30 64 -80 97 -112 53 -50 65 -57
114 -63 30 -3 545 -5 1144 -3 1025 3 1093 4 1118 21 15 9 27 23 27 30 0 18
-64 102 -120 158 -25 25 -73 79 -107 120 -151 181 -180 215 -220 255 -23 23
-50 59 -61 80 -11 22 -32 50 -47 64 -15 14 -44 50 -63 80 -19 30 -52 74 -73
97 -23 25 -41 56 -45 79 -10 53 14 70 112 79 111 10 417 121 507 184 23 16 98
87 167 157 126 130 194 222 252 344 16 36 45 85 63 110 17 25 44 77 59 117 15
40 40 88 57 109 16 20 37 65 48 101 11 35 38 95 61 133 23 38 48 95 57 126 8
32 34 97 59 145 37 74 45 103 54 181 16 135 1 210 -55 289 -18 26 -41 61 -50
79 -9 18 -49 65 -89 105 -62 62 -85 78 -171 116 l-100 43 -1375 8 c-756 4
-2042 7 -2857 5 l-1482 -2 -28 -21 c-15 -11 -37 -43 -48 -71 -11 -28 -36 -75
-56 -104 -20 -30 -44 -76 -54 -104 -10 -27 -35 -81 -56 -120 -21 -38 -47 -96
-59 -127 -12 -32 -37 -81 -56 -109 -20 -28 -46 -79 -59 -113 -13 -34 -39 -89
-58 -122 -19 -32 -42 -82 -51 -111 -10 -29 -35 -78 -57 -110 -21 -32 -46 -80
-55 -108 -9 -27 -36 -84 -60 -126 -24 -42 -53 -103 -64 -135 -11 -32 -36 -82
-56 -111 -20 -28 -48 -85 -63 -126 -15 -40 -42 -95 -60 -121 -18 -26 -43 -78
-56 -116 -13 -38 -38 -90 -55 -115 -17 -25 -40 -67 -51 -93 -22 -52 -116 -250
-156 -327 -108 -209 -173 -343 -194 -399 -11 -31 -36 -78 -55 -106 -19 -27
-43 -74 -55 -104 -37 -99 -75 -127 -127 -90 -33 23 -57 78 -85 192 -14 56 -42
137 -61 180 -20 43 -42 111 -51 152 -8 40 -34 114 -56 164 -22 50 -49 128 -60
174 -10 46 -28 102 -40 125 -30 60 -65 165 -79 234 -6 32 -31 99 -56 148 -26
55 -49 119 -58 165 -8 41 -31 111 -51 155 -20 44 -47 124 -60 179 -14 55 -43
139 -65 187 -23 48 -46 116 -51 151 -7 35 -30 102 -55 153 -24 50 -53 131 -65
180 -49 211 -240 450 -441 553 -126 64 -208 93 -291 102 -98 12 -1861 11
-1928 0z"/>
<path d="M50657 26206 c-67 -18 -84 -38 -112 -132 -16 -49 -39 -100 -60 -127
-19 -25 -46 -75 -59 -111 -13 -36 -40 -90 -59 -118 -20 -29 -48 -86 -62 -126
-15 -41 -39 -94 -55 -119 -16 -24 -40 -74 -55 -110 -14 -36 -40 -86 -57 -110
-16 -25 -41 -72 -55 -106 -14 -34 -40 -89 -59 -123 -19 -34 -42 -85 -53 -115
-10 -30 -37 -82 -59 -117 -23 -35 -46 -80 -53 -100 -6 -20 -31 -73 -55 -117
-23 -44 -54 -111 -68 -148 -14 -38 -39 -86 -56 -106 -16 -21 -40 -68 -54 -106
-13 -37 -40 -91 -59 -119 -20 -28 -47 -87 -62 -130 -14 -44 -42 -101 -61 -127
-19 -26 -43 -73 -54 -105 -11 -32 -33 -78 -50 -103 -16 -26 -36 -63 -45 -83
-32 -77 -11 -203 46 -274 17 -21 39 -55 49 -74 11 -19 54 -71 97 -116 67 -69
93 -87 183 -132 58 -28 164 -70 235 -94 l130 -42 1140 -8 c627 -4 1894 -7
2815 -5 1556 2 1677 3 1706 19 29 16 44 40 59 98 4 14 26 59 50 100 23 41 52
105 63 142 12 37 39 100 61 140 22 40 46 97 55 127 9 30 27 73 41 97 39 66 34
91 -22 117 l-48 22 -890 -3 c-489 -1 -1376 -2 -1969 -2 -1182 1 -1123 -2
-1159 59 -9 16 -17 42 -17 58 0 47 55 205 92 263 19 30 47 91 62 135 16 44 42
101 57 126 16 25 40 78 54 118 13 39 38 90 54 114 17 23 43 81 59 128 16 47
43 107 61 133 18 26 45 84 60 129 16 45 42 105 60 132 17 28 40 78 51 113 24
78 65 148 98 170 24 16 175 17 2078 22 2010 5 2052 5 2073 24 26 24 114 185
131 241 7 22 28 66 48 99 19 32 48 93 63 134 16 42 42 95 59 119 30 42 70 140
70 173 0 9 -9 25 -21 36 -21 18 -68 19 -1748 25 -3091 11 -4670 9 -4724 -5z"/>
<path d="M13120 25820 c-10 -10 -30 -41 -44 -67 -14 -26 -34 -61 -46 -78 -11
-16 -30 -61 -41 -100 -11 -38 -38 -99 -59 -135 -22 -36 -50 -101 -64 -145 -14
-44 -38 -100 -54 -125 -31 -50 -46 -85 -61 -145 -6 -22 -28 -70 -49 -105 -22
-36 -52 -103 -67 -150 -15 -47 -43 -110 -61 -140 -18 -30 -40 -82 -49 -115 -9
-33 -34 -90 -56 -126 -21 -36 -52 -105 -69 -153 -16 -49 -43 -109 -59 -135
-16 -25 -38 -77 -50 -116 -11 -38 -36 -95 -54 -126 -19 -30 -47 -93 -62 -140
-15 -46 -43 -109 -61 -139 -19 -31 -43 -89 -55 -130 -11 -41 -38 -105 -60
-142 -22 -37 -47 -91 -54 -120 -8 -29 -38 -99 -66 -155 -51 -99 -52 -102 -36
-127 10 -14 30 -29 45 -33 15 -5 320 -8 677 -8 l650 0 48 23 c54 27 61 38 92
139 13 40 38 96 57 125 19 29 45 85 56 123 12 39 36 93 53 120 18 28 46 93 64
145 18 52 46 118 64 145 17 28 39 80 49 117 11 37 37 95 60 130 22 35 48 90
57 123 10 33 37 96 60 140 24 44 49 100 55 125 7 25 31 81 55 125 24 44 57
123 74 174 l30 95 -18 42 c-11 23 -44 69 -74 102 -31 33 -63 75 -73 94 -9 18
-36 53 -59 78 -89 94 -133 147 -160 190 -15 25 -48 68 -74 97 -89 99 -136 156
-156 188 -19 30 -47 63 -172 205 -29 33 -53 64 -53 68 0 5 -11 21 -25 36 -29
32 -76 35 -105 6z"/>
<path d="M53022 24929 c-84 -11 -127 -51 -178 -165 -14 -32 -41 -79 -59 -105
-19 -25 -44 -71 -55 -103 -12 -32 -35 -73 -51 -91 -16 -18 -43 -65 -59 -105
-16 -39 -41 -85 -55 -102 -30 -35 -29 -44 9 -72 27 -21 29 -21 1632 -24 1287
-2 1609 0 1629 10 31 17 106 123 149 213 18 39 45 84 60 101 14 18 39 61 55
96 16 36 44 85 63 110 19 25 47 75 63 112 33 77 29 94 -26 112 -37 13 -3079
25 -3177 13z"/>
</g>
</svg>
